<svg width="80" height="80" viewBox="0 0 80 80" fill="none" xmlns="http://www.w3.org/2000/svg">
<rect x="2" y="2" width="76" height="76" rx="8" stroke="white" stroke-width="4"/>
<path d="M39.377 43.4746L42.3691 43.6911L42.6018 40.4746H39.377V43.4746ZM36.3184 49.9785L34.3624 47.7038L34.3552 47.71L36.3184 49.9785ZM21.3242 49.0469L19.0345 50.9852L19.04 50.9918L19.0456 50.9983L21.3242 49.0469ZM23.5215 27.5664L25.1031 30.1156L25.1082 30.1125L23.5215 27.5664ZM39.4121 35.0898V38.0898H42.7217L42.3977 34.7962L39.4121 35.0898ZM34.1387 35.0898L31.1478 35.3232L31.3636 38.0898H34.1387V35.0898ZM32.75 31.5039L30.6778 33.6732L30.6943 33.689L30.7111 33.7046L32.75 31.5039ZM25.1914 32.2773L22.7273 30.5662L22.724 30.5709L25.1914 32.2773ZM23.8555 38.1309L20.8556 38.1043L20.8555 38.1176V38.1309H23.8555ZM25.1035 46.1289L22.5898 47.7663L22.595 47.7744L22.6003 47.7824L25.1035 46.1289ZM32.7148 46.9375L34.7537 49.1382L34.755 49.137L32.7148 46.9375ZM34.1035 43.4746V40.4746H31.3206L31.112 43.2497L34.1035 43.4746ZM36.3848 43.2582C36.2345 45.335 35.5113 46.7159 34.3624 47.7038L38.2743 52.2532C40.8051 50.0771 42.1209 47.122 42.3691 43.6911L36.3848 43.2582ZM34.3552 47.71C33.1946 48.7144 31.5352 49.3516 29.0762 49.3516V55.3516C32.6172 55.3516 35.7859 54.4067 38.2815 52.247L34.3552 47.71ZM29.0762 49.3516C26.5426 49.3516 24.841 48.5413 23.6028 47.0955L19.0456 50.9983C21.5809 53.9587 25.0473 55.3516 29.0762 55.3516V49.3516ZM23.6139 47.1085C22.3297 45.5915 21.5117 43.3226 21.5117 39.9414H15.5117C15.5117 44.2712 16.5688 48.0726 19.0345 50.9852L23.6139 47.1085ZM21.5117 39.9414V38.377H15.5117V39.9414H21.5117ZM21.5117 38.377C21.5117 36.2688 21.8823 34.5444 22.5354 33.1324L17.0896 30.6137C16.0083 32.9517 15.5117 35.5632 15.5117 38.377H21.5117ZM22.5354 33.1324C23.1804 31.7378 24.0423 30.7738 25.1031 30.1156L21.9399 25.0172C19.7897 26.3512 18.179 28.2582 17.0896 30.6137L22.5354 33.1324ZM25.1082 30.1125C26.194 29.4358 27.5057 29.0547 29.1465 29.0547V23.0547C26.5216 23.0547 24.0833 23.6814 21.9348 25.0203L25.1082 30.1125ZM29.1465 29.0547C31.5466 29.0547 33.1665 29.6851 34.3056 30.6836L38.2608 26.1718C35.7905 24.0063 32.6526 23.0547 29.1465 23.0547V29.0547ZM34.3056 30.6836C35.4277 31.6673 36.2043 33.1239 36.4265 35.3835L42.3977 34.7962C42.0575 31.337 40.748 28.3522 38.2608 26.1718L34.3056 30.6836ZM39.4121 32.0898H34.1387V38.0898H39.4121V32.0898ZM37.1296 34.8565C36.9719 32.8356 36.3683 30.7665 34.7889 29.3032L30.7111 33.7046C30.7255 33.7179 31.0476 34.0394 31.1478 35.3232L37.1296 34.8565ZM34.8222 29.3346C33.2581 27.8405 31.1638 27.3789 29.1465 27.3789V33.3789C30.3636 33.3789 30.6716 33.6673 30.6778 33.6732L34.8222 29.3346ZM29.1465 27.3789C26.5661 27.3789 24.2525 28.3699 22.7273 30.5662L27.6555 33.9885C27.8882 33.6535 28.2113 33.3789 29.1465 33.3789V27.3789ZM22.724 30.5709C21.3452 32.5645 20.8809 35.2467 20.8556 38.1043L26.8554 38.1574C26.8769 35.7181 27.3032 34.498 27.6588 33.9838L22.724 30.5709ZM20.8555 38.1309V40.0645H26.8555V38.1309H20.8555ZM20.8555 40.0645C20.8555 43.0027 21.2736 45.7457 22.5898 47.7663L27.6173 44.4915C27.2694 43.9574 26.8555 42.6575 26.8555 40.0645H20.8555ZM22.6003 47.7824C24.1053 50.0608 26.4725 51.0449 29.0762 51.0449V45.0449C28.0705 45.0449 27.7892 44.7517 27.6067 44.4754L22.6003 47.7824ZM29.0762 51.0449C31.0921 51.0449 33.1806 50.5956 34.7537 49.1382L30.676 44.7368C30.6553 44.756 30.3181 45.0449 29.0762 45.0449V51.0449ZM34.755 49.137C36.313 47.6919 36.9448 45.6982 37.0951 43.6995L31.112 43.2497C31.0279 44.3682 30.7339 44.6831 30.6747 44.738L34.755 49.137ZM34.1035 46.4746H39.377V40.4746H34.1035V46.4746ZM55.0566 43L53.2313 45.3808L53.2439 45.3905L53.2566 45.4L55.0566 43ZM51.2598 41.3125L50.3275 44.164L50.3358 44.1667L50.3441 44.1693L51.2598 41.3125ZM46.918 39.5547L45.4919 42.194L45.4957 42.1961L46.918 39.5547ZM43.7188 29.5176L41.2846 27.764L41.2811 27.7689L43.7188 29.5176ZM47.0762 26.9688L45.9239 24.1989L45.916 24.2022L47.0762 26.9688ZM56.8848 27.0566L55.6149 29.7746L55.6241 29.7789L55.6333 29.7831L56.8848 27.0566ZM60.207 29.8516L57.6923 31.4874L57.6978 31.4959L57.7034 31.5044L60.207 29.8516ZM61.4023 33.9648V36.9648H64.4023V33.9648H61.4023ZM56.1289 33.9648H53.1289V36.9648H56.1289V33.9648ZM55.0215 31.2402L53.0284 33.4825L53.0384 33.4914L53.0485 33.5002L55.0215 31.2402ZM48.9043 31.082L50.7106 33.4773L50.723 33.4679L50.7353 33.4585L48.9043 31.082ZM49.0801 35.3184L47.3999 37.8037L47.4079 37.8091L47.416 37.8145L49.0801 35.3184ZM52.7891 36.9004L51.9213 39.7722L51.925 39.7733L52.7891 36.9004ZM58.8887 50.4707L60.686 52.8727L60.6967 52.8647L58.8887 50.4707ZM46.7422 51.2793L45.5127 54.0158L45.521 54.0195L45.5293 54.0232L46.7422 51.2793ZM43.0332 48.3086L40.5442 49.9834L40.5496 49.9914L40.555 49.9993L43.0332 48.3086ZM41.7676 43.9492V40.9492H38.7676V43.9492H41.7676ZM47.0586 43.9492H50.0586V40.9492H47.0586V43.9492ZM55.0566 47.4297L56.8042 49.8681L56.8175 49.8586L56.8307 49.8489L55.0566 47.4297ZM59.1113 45.2852C59.1113 43.4888 58.4234 41.7751 56.8566 40.6L53.2566 45.4C53.2496 45.3947 53.2257 45.3753 53.1962 45.3392C53.1662 45.3025 53.1414 45.2621 53.1238 45.224C53.0868 45.1437 53.1113 45.1409 53.1113 45.2852H59.1113ZM56.8819 40.6192C55.7373 39.7416 54.0395 39.0531 52.1754 38.4557L50.3441 44.1693C52.1362 44.7437 52.9697 45.1802 53.2313 45.3808L56.8819 40.6192ZM52.192 38.461C50.447 37.8905 49.1864 37.3689 48.3403 36.9133L45.4957 42.1961C46.7824 42.889 48.4163 43.5392 50.3275 44.164L52.192 38.461ZM48.3441 36.9153C46.1303 35.7192 45.5586 34.4842 45.5586 33.209H39.5586C39.5586 37.254 41.8932 40.2496 45.4919 42.194L48.3441 36.9153ZM45.5586 33.209C45.5586 32.4254 45.7647 31.8122 46.1564 31.2663L41.2811 27.7689C40.1259 29.3792 39.5586 31.227 39.5586 33.209H45.5586ZM46.1529 31.2712C46.5625 30.7026 47.2037 30.1684 48.2364 29.7353L45.916 24.2022C44.0424 24.9879 42.4453 26.1529 41.2846 27.764L46.1529 31.2712ZM48.2284 29.7386C49.279 29.3016 50.5203 29.0547 51.998 29.0547V23.0547C49.843 23.0547 47.803 23.4172 45.9239 24.1989L48.2284 29.7386ZM51.998 29.0547C53.4566 29.0547 54.6411 29.3196 55.6149 29.7746L58.1546 24.3387C56.2691 23.4577 54.1957 23.0547 51.998 23.0547V29.0547ZM55.6333 29.7831C56.5967 30.2254 57.245 30.7998 57.6923 31.4874L62.7218 28.2157C61.5988 26.4893 60.0322 25.2004 58.1363 24.3302L55.6333 29.7831ZM57.7034 31.5044C58.1562 32.1903 58.4023 32.9795 58.4023 33.9648H64.4023C64.4023 31.8799 63.8516 29.9269 62.7106 28.1987L57.7034 31.5044ZM61.4023 30.9648H56.1289V36.9648H61.4023V30.9648ZM59.1289 33.9648C59.1289 32.1125 58.5133 30.3063 56.9945 28.9803L53.0485 33.5002C53.0558 33.5065 53.0598 33.5107 53.0614 33.5125C53.0623 33.5135 53.0629 33.5142 53.0631 33.5145C53.0634 33.5148 53.0635 33.515 53.0635 33.515C53.0636 33.5151 53.0637 33.5153 53.0639 33.5157C53.0642 33.516 53.0646 33.5167 53.0653 33.5179C53.0665 33.5202 53.0692 33.5253 53.0728 33.5344C53.0861 33.567 53.1289 33.6921 53.1289 33.9648H59.1289ZM57.0146 28.998C55.5589 27.704 53.7192 27.2559 51.9102 27.2559V33.2559C52.7729 33.2559 53.0075 33.4639 53.0284 33.4825L57.0146 28.998ZM51.9102 27.2559C50.2344 27.2559 48.4959 27.6095 47.0733 28.7056L50.7353 33.4585C50.7423 33.453 51.0078 33.2559 51.9102 33.2559V27.2559ZM47.098 28.6868C45.6361 29.7892 44.832 31.3886 44.832 33.2266H50.832C50.832 33.2052 50.8341 33.2133 50.8274 33.2435C50.8204 33.2749 50.8067 33.3175 50.7834 33.3641C50.7601 33.4107 50.7347 33.4462 50.7152 33.469C50.6965 33.4909 50.6908 33.4922 50.7106 33.4773L47.098 28.6868ZM44.832 33.2266C44.832 35.2696 45.938 36.8154 47.3999 37.8037L50.7603 32.833C50.6246 32.7413 50.6559 32.7285 50.7203 32.8364C50.7526 32.8905 50.7835 32.9594 50.8048 33.0378C50.8261 33.1159 50.832 33.1819 50.832 33.2266H44.832ZM47.416 37.8145C48.6156 38.6142 50.1736 39.2441 51.9213 39.7722L53.6568 34.0286C52.1467 33.5723 51.2321 33.1475 50.7442 32.8222L47.416 37.8145ZM51.925 39.7733C54.7236 40.615 56.3797 41.5565 57.2521 42.4065L61.4393 38.1091C59.5695 36.2873 56.8545 34.9904 53.6532 34.0275L51.925 39.7733ZM57.2521 42.4065C58.0178 43.1525 58.4023 44.0301 58.4023 45.25H64.4023C64.4023 42.4855 63.4158 40.035 61.4393 38.1091L57.2521 42.4065ZM58.4023 45.25C58.4023 46.5841 57.9591 47.4133 57.0806 48.0767L60.6967 52.8647C63.1698 50.9969 64.4023 48.3456 64.4023 45.25H58.4023ZM57.0914 48.0687C56.0907 48.8174 54.5361 49.3516 52.1211 49.3516V55.3516C55.3779 55.3516 58.3351 54.6318 60.686 52.8727L57.0914 48.0687ZM52.1211 49.3516C50.5225 49.3516 49.149 49.0631 47.9551 48.5354L45.5293 54.0232C47.5698 54.9251 49.7822 55.3516 52.1211 55.3516V49.3516ZM47.9716 48.5428C46.7731 48.0043 46.0058 47.3426 45.5114 46.6179L40.555 49.9993C41.7715 51.7824 43.4769 53.1011 45.5127 54.0158L47.9716 48.5428ZM45.5222 46.6338C45.0426 45.921 44.7676 45.063 44.7676 43.9492H38.7676C38.7676 46.1401 39.3363 48.1884 40.5442 49.9834L45.5222 46.6338ZM41.7676 46.9492H47.0586V40.9492H41.7676V46.9492ZM44.0586 43.9492C44.0586 45.978 44.6902 47.9973 46.399 49.4272C48.0054 50.7714 50.0885 51.1855 52.1211 51.1855V45.1855C50.7787 45.1855 50.3306 44.8936 50.2495 44.8257C50.2232 44.8038 50.1958 44.7772 50.162 44.6924C50.121 44.5894 50.0586 44.3628 50.0586 43.9492H44.0586ZM52.1211 51.1855C53.7319 51.1855 55.4089 50.8681 56.8042 49.8681L53.3091 44.9912C53.2981 44.9991 53.0181 45.1855 52.1211 45.1855V51.1855ZM56.8307 49.8489C58.3472 48.7368 59.1113 47.1006 59.1113 45.2852H53.1113C53.1113 45.3509 53.1008 45.2942 53.1556 45.1829C53.1808 45.1317 53.211 45.0874 53.2403 45.0532C53.2688 45.02 53.2871 45.0072 53.2826 45.0105L56.8307 49.8489Z" fill="white"/>
</svg>
