<svg width="37" height="33" viewBox="0 0 37 33" fill="none" xmlns="http://www.w3.org/2000/svg">
<path d="M12.6163 0.000134957C10.1101 0.0106497 7.66345 0.751298 5.58569 2.12841C3.50792 3.50551 1.8924 5.45722 0.943443 7.73668C-0.00551436 10.0161 -0.245278 12.521 0.254477 14.9343C0.754232 17.3477 1.97105 19.5613 3.75105 21.295C5.53104 23.0287 7.79425 24.2047 10.2544 24.6743C12.7146 25.1439 15.2612 24.886 17.5722 23.9332C19.8832 22.9804 21.8548 21.3755 23.2376 19.3214C24.6203 17.2674 25.3522 14.8565 25.3406 12.3937C25.3335 10.7588 24.9987 9.14122 24.3554 7.63348C23.712 6.12574 22.7727 4.75732 21.5911 3.60641C20.4095 2.4555 19.0087 1.54464 17.4687 0.925863C15.9288 0.307088 14.2799 -0.00747825 12.6163 0.000134957ZM12.7095 21.0417C10.9795 21.0493 9.28601 20.5525 7.84333 19.6142C6.40064 18.6759 5.27352 17.3383 4.60454 15.7704C3.93555 14.2025 3.75475 12.4749 4.085 10.806C4.41525 9.13719 5.24172 7.60206 6.45988 6.39485C7.67803 5.18763 9.23314 4.36255 10.9285 4.02398C12.6239 3.6854 14.3833 3.84853 15.9844 4.49274C17.5854 5.13695 18.956 6.23329 19.9229 7.6431C20.8898 9.05291 21.4095 10.7128 21.4163 12.413C21.4242 14.6913 20.5117 16.8795 18.8792 18.4973C17.2468 20.1151 15.0278 21.0302 12.7095 21.0417Z" fill="white"/>
<path d="M20.1228 17.8726L19.8686 18.16C19.0244 19.1144 19.1273 20.5607 20.0984 21.3903L31.9302 31.4978C32.9014 32.3274 34.373 32.2263 35.2173 31.2719L35.4715 30.9845C36.3157 30.0301 36.2128 28.5839 35.2417 27.7542L23.4099 17.6467C22.4387 16.8171 20.967 16.9182 20.1228 17.8726Z" fill="white"/>
</svg>
